<?xml version="1.0" encoding="UTF-8" standalone="no"?>
<svg viewBox="0 0 4780.0 4780.0">
  <path d="M2330,3649c-13,-6 -56,-41 -95,-78 -123,-120 -200,-144 -445,-143 -196,1 -334,14 -530,50 -184,34 -244,35 -286,5 -68,-48 -64,17 -64,-1111l0,-1019 23,-33c34,-51 77,-66 277,-99 267,-44 372,-54 585,-54 270,-1 409,34 540,133l61,46 37,-31c174,-151 517,-189 1029,-115 297,44 365,66 399,130 18,33 19,79 19,1048 0,1111 4,1042 -60,1095 -47,40 -85,42 -238,13 -201,-38 -386,-57 -572,-58 -253,-1 -342,27 -466,150 -36,34 -76,67 -90,72 -32,13 -91,12 -124,-1zM2559,3285c55,-34 148,-64 244,-77 115,-15 427,-4 622,23 88,12 171,22 185,23l25,1 0,-895 0,-895 -84,-17c-234,-46 -515,-70 -672,-57 -194,17 -325,96 -359,218 -10,37 -15,1701 -5,1701 3,0 23,-11 44,-25zM2268,2441l-3,-859 -30,-44c-35,-49 -116,-102 -190,-123 -155,-46 -482,-32 -805,33l-85,17 -3,889c-1,490 1,893 5,897 5,4 63,-1 131,-11 268,-41 582,-52 738,-25 55,10 116,29 159,50 39,18 73,34 78,34 4,1 6,-386 5,-858z" fill="#ffffff"/>
</svg>
